<svg width="48" height="48" viewBox="0 0 48 48" fill="none" xmlns="http://www.w3.org/2000/svg">
    <defs>
        <linearGradient id="paint0_linear_375_8836" x1="24" y1="6.53" x2="24" y2="42.25" gradientUnits="userSpaceOnUse">
            <stop offset="0.9" stop-color="#242020"/>
            <stop offset="0.917" stop-color="#403E3E"/>
            <stop offset="0.973958" stop-color="#110D0D"/>
        </linearGradient>
        <radialGradient id="paint1_radial_375_8836" cx="0" cy="0" r="1" gradientUnits="userSpaceOnUse" gradientTransform="translate(24 25.5) scale(13.5)">
            <stop/>
            <stop offset="1" stop-opacity="0"/>
        </radialGradient>
        <radialGradient id="paint2_radial_375_8836" cx="0" cy="0" r="1" gradientUnits="userSpaceOnUse" gradientTransform="translate(18.5 19.554) scale(16.518)">
            <stop stop-color="#C84040"/>
            <stop offset="0.137" stop-color="#C84040"/>
            <stop offset="0.309" stop-color="#C84040"/>
            <stop offset="0.499" stop-color="#B64967"/>
            <stop offset="0.702" stop-color="#154C85"/>
            <stop offset="0.913" stop-color="#154C85"/>
            <stop offset="1" stop-color="#154C85"/>
        </radialGradient>
    </defs>
    <path d="M43 10H33.161C32.553 10 31.979 9.724 31.599 9.249L29.6 6.751C29.221 6.276 28.646 6 28.039 6H19.962C19.354 6 18.78 6.276 18.4 6.751L16.4 9.249C16.021 9.724 15.446 10 14.839 10H5C3.895 10 3 10.895 3 12V39C3 40.105 3.895 41 5 41H43C44.105 41 45 40.105 45 39V12C45 10.895 44.105 10 43 10Z" fill="url(#paint0_linear_375_8836)"/>
    <path d="M24 39C31.4558 39 37.5 32.9558 37.5 25.5C37.5 18.0442 31.4558 12 24 12C16.5442 12 10.5 18.0442 10.5 25.5C10.5 32.9558 16.5442 39 24 39Z" fill="url(#paint1_radial_375_8836)"/>
    <path d="M24 36C30.0751 36 35 31.0751 35 25C35 18.9249 30.0751 14 24 14C17.9249 14 13 18.9249 13 25C13 31.0751 17.9249 36 24 36Z" fill="white"/>
    <path d="M24 33C28.4183 33 32 29.4183 32 25C32 20.5817 28.4183 17 24 17C19.5817 17 16 20.5817 16 25C16 29.4183 19.5817 33 24 33Z" fill="url(#paint2_radial_375_8836)"/>
    <path d="M39 18C40.1046 18 41 17.1046 41 16C41 14.8954 40.1046 14 39 14C37.8954 14 37 14.8954 37 16C37 17.1046 37.8954 18 39 18Z" fill="#154C85"/>
    <path d="M14 10H7V9C7 8.448 7.448 8 8 8H13C13.552 8 14 8.448 14 9V10Z" fill="#0076D7"/>
</svg>
