<svg width="50" height="50" viewBox="0 0 50 50" fill="none" xmlns="http://www.w3.org/2000/svg">
    <defs>
        <linearGradient id="paint0_linear_375_8850" x1="25" y1="40.625" x2="25" y2="9.375" gradientUnits="userSpaceOnUse">
            <stop stop-color="#3B91A6"/>
            <stop offset="0.323" stop-color="#3D8EA2"/>
            <stop offset="0.896" stop-color="#5294A5"/>
            <stop offset="1" stop-color="#4F8694"/>
        </linearGradient>
        <linearGradient id="paint1_linear_375_8850" x1="25" y1="32.0313" x2="25" y2="42.9688" gradientUnits="userSpaceOnUse">
            <stop stop-color="#34A45C"/>
            <stop offset="0.996" stop-color="#34B171"/>
            <stop offset="1" stop-color="#227249"/>
        </linearGradient>
        <linearGradient id="paint2_linear_375_8850" x1="16.4062" y1="29.6875" x2="16.4062" y2="9.375" gradientUnits="userSpaceOnUse">
            <stop stop-color="#538A97"/>
            <stop offset="0.851" stop-color="#93E6FA"/>
            <stop offset="1" stop-color="#96E7FB"/>
        </linearGradient>
        <linearGradient id="paint3_linear_375_8850" x1="20.768" y1="40.625" x2="20.768" y2="25.7812" gradientUnits="userSpaceOnUse">
            <stop stop-color="#FF8B67"/>
            <stop offset="0.847" stop-color="#FFA76A"/>
            <stop offset="1" stop-color="#FFAD6B"/>
        </linearGradient>
        <linearGradient id="paint4_linear_375_8850" x1="16.1477" y1="40.6252" x2="16.1477" y2="25.8018" gradientUnits="userSpaceOnUse">
            <stop stop-color="#FF9757"/>
            <stop offset="1" stop-color="#FFB65B"/>
        </linearGradient>
        <linearGradient id="paint5_linear_375_8850" x1="32.0664" y1="40.625" x2="32.0664" y2="22.6563" gradientUnits="userSpaceOnUse">
            <stop stop-color="#FFC96A"/>
            <stop offset="0.004" stop-color="#FFC96A"/>
            <stop offset="0.578" stop-color="#FFC887"/>
            <stop offset="1" stop-color="#FFC797"/>
        </linearGradient>
        <linearGradient id="paint6_linear_375_8850" x1="39.1758" y1="40.625" x2="39.1758" y2="25" gradientUnits="userSpaceOnUse">
            <stop stop-color="#FFC050"/>
            <stop offset="0.004" stop-color="#FFC050"/>
            <stop offset="0.641" stop-color="#FFBE75"/>
            <stop offset="1" stop-color="#FFBD85"/>
        </linearGradient>
        <linearGradient id="paint7_linear_375_8850" x1="12.8906" y1="21.0938" x2="12.8906" y2="14.0625" gradientUnits="userSpaceOnUse">
            <stop offset="0.018" stop-color="#FFF8E5"/>
            <stop offset="1" stop-color="#FFFEF8"/>
        </linearGradient>
    </defs>
    <path d="M42.1875 9.375H7.8125C5.22344 9.375 3.125 11.4734 3.125 14.0625V35.9375C3.125 38.5266 5.22344 40.625 7.8125 40.625H42.1875C44.7766 40.625 46.875 38.5266 46.875 35.9375V14.0625C46.875 11.4734 44.7766 9.375 42.1875 9.375Z" fill="url(#paint0_linear_375_8850)"/>
    <path d="M3.125 29.6875V35.9375C3.125 38.5266 5.22344 40.625 7.8125 40.625H42.1875C44.7766 40.625 46.875 38.5266 46.875 35.9375V29.6875H3.125Z" fill="url(#paint1_linear_375_8850)"/>
    <path d="M6.22656 18.7734C6.72656 19.2656 7.03125 19.9531 7.03125 20.7031C7.03125 22.2031 5.80469 23.4375 4.29688 23.4375H3.125V29.6875H22.2656C23.7758 29.6875 25 28.4633 25 26.9531C25 25.443 23.7758 24.2188 22.2656 24.2188H21.4844C20.7344 24.2188 20.0469 23.9141 19.5547 23.4141C19.0773 22.9445 18.7781 22.2969 18.7516 21.5867C18.6938 20.0273 20.0773 18.75 21.6375 18.75H27.243C28.2523 18.75 29.2062 18.157 29.5461 17.207C29.8781 16.2797 29.5938 15.3445 28.9992 14.75C28.5781 14.3281 27.9844 14.0625 27.3438 14.0625H25C24.1406 14.0625 23.3594 13.7109 22.7969 13.1406C22.2266 12.5781 21.875 11.7969 21.875 10.9375C21.875 10.3672 22.0312 9.83594 22.3047 9.375H7.8125C5.22344 9.375 3.125 11.4734 3.125 14.0625V17.9688H4.29688C5.04688 17.9688 5.73437 18.2734 6.22656 18.7734Z" fill="url(#paint2_linear_375_8850)"/>
    <path d="M31.8977 39.4507C31.2008 40.1734 30.2133 40.625 29.1289 40.625H9.63828C11.1484 38.3273 15.5695 31.4086 18.3125 27.1109C19.4094 25.3875 21.8812 25.3296 23.0625 26.9945L31.8977 39.4507Z" fill="url(#paint3_linear_375_8850)"/>
    <path d="M14.6328 38.0705C14.9844 37.7189 15.4766 37.5002 16.0156 37.5002H20.6172C21.2344 36.5549 21.9141 35.4924 22.6328 34.3752H19.1406C18.0625 34.3752 17.1875 33.5002 17.1875 32.4221C17.1875 31.883 17.4062 31.3908 17.7578 31.0393C18.1094 30.6877 18.6016 30.4689 19.1406 30.4689H20.3125C20.9531 30.4689 21.5469 30.2033 21.9687 29.7814C22.3906 29.3596 22.6562 28.7658 22.6562 28.1252C22.6562 26.9057 21.7102 25.9018 20.518 25.8018C19.6633 25.8635 18.8328 26.2939 18.3125 27.1104C15.5695 31.4088 11.1484 38.3275 9.63828 40.6252H14.4531C14.2109 40.3049 14.0625 39.8908 14.0625 39.4533C14.0625 38.9143 14.2812 38.4221 14.6328 38.0705Z" fill="url(#paint4_linear_375_8850)"/>
    <path d="M45.5391 39.2032C44.6953 40.0782 43.5 40.625 42.1875 40.625H18.5938C20.4219 37.8438 25.7734 29.4688 29.0938 24.2657C30.4219 22.1797 33.4141 22.1094 34.8438 24.125L45.5391 39.2032Z" fill="url(#paint5_linear_375_8850)"/>
    <path d="M45.5391 39.2031C44.6953 40.0781 43.5 40.625 42.1875 40.625H35.1562C34.2969 40.625 33.5938 39.9219 33.5938 39.0625C33.5938 38.6328 33.7656 38.2422 34.0547 37.9609C34.3359 37.6719 34.7266 37.5 35.1562 37.5H36.7188C37.5781 37.5 38.2812 36.7969 38.2812 35.9375C38.2812 35.5078 38.1094 35.1172 37.8203 34.8359C37.5391 34.5469 37.1484 34.375 36.7188 34.375H34.375C33.5156 34.375 32.8125 33.6719 32.8125 32.8125C32.8125 32.3828 32.9844 31.9922 33.2734 31.7109C33.5547 31.4219 33.9453 31.25 34.375 31.25H35.1562C36.0156 31.25 36.7188 30.5469 36.7188 29.6875C36.7188 29.2578 36.5469 28.8672 36.2578 28.5859C35.9766 28.2969 35.5859 28.125 35.1562 28.125C34.2969 28.125 33.5938 27.4219 33.5938 26.5625C33.5938 26.1328 33.7656 25.7422 34.0547 25.4609C34.3359 25.1719 34.7266 25 35.1562 25H35.4609L37.6797 28.125L39.8984 31.25L42.1172 34.375L44.3281 37.5L45.5391 39.2031Z" fill="url(#paint6_linear_375_8850)"/>
    <path d="M12.8906 14.0625C11.9582 14.0625 11.064 14.4329 10.4047 15.0922C9.7454 15.7515 9.375 16.6457 9.375 17.5781C9.375 18.5105 9.7454 19.4047 10.4047 20.064C11.064 20.7234 11.9582 21.0938 12.8906 21.0938C13.823 21.0938 14.7172 20.7234 15.3765 20.064C16.0359 19.4047 16.4062 18.5105 16.4062 17.5781C16.4062 16.6457 16.0359 15.7515 15.3765 15.0922C14.7172 14.4329 13.823 14.0625 12.8906 14.0625Z" fill="url(#paint7_linear_375_8850)"/>
</svg>
